<svg width="30" height="30" viewBox="0 0 30 30" fill="none" xmlns="http://www.w3.org/2000/svg">
<g clip-path="url(#clip0_7_74)">
<path fill-rule="evenodd" clip-rule="evenodd" d="M14.215 0.237432C14.69 -0.0788184 15.3088 -0.0788184 15.785 0.237432L29.365 9.24993C29.7613 9.51243 30 9.95618 30 10.4324V19.5674C30 20.0424 29.7625 20.4874 29.365 20.7512L15.785 29.7637C15.31 30.0787 14.6912 30.0787 14.215 29.7637L0.635 20.7499C0.439856 20.6205 0.279759 20.4448 0.168967 20.2384C0.058176 20.0321 0.000130293 19.8016 0 19.5674L0 10.4324C0 9.95743 0.2375 9.51243 0.635 9.24868L14.215 0.237432ZM2.84 13.0787V16.9012L5.7 14.9762L2.84 13.0787ZM8.26125 16.6762L3.975 19.5599L13.58 25.9349V20.2062L8.2625 16.6762H8.26125ZM16.42 20.2062V25.9337L26.025 19.5587L21.7375 16.6762L16.42 20.2062ZM24.2987 14.9774L27.1613 16.9024V13.0774L24.2987 14.9774ZM26.0125 10.4324L21.75 13.2612L16.42 9.67618V4.06618L26.0125 10.4324ZM13.58 4.06618V9.67493L8.25125 13.2599L3.9875 10.4324L13.58 4.06618ZM15 12.1437L10.8125 14.9612L15 17.7399L19.1875 14.9612L15 12.1437Z" fill="#46ddd3"/>
</g>
<defs>
<clipPath id="clip0_7_74">
<rect width="30" height="30" fill="white"/>
</clipPath>
</defs>
</svg>
