<svg width="200" height="200" viewBox="0 0 200 200" fill="none" xmlns="http://www.w3.org/2000/svg">
<g id="Frame 1">
<rect width="200" height="200" fill="white"/>
<path id="hex-inner" d="M103.25 34.7424L153.707 63.8736C156.027 65.2134 157.457 67.6893 157.457 70.3688V128.631C157.457 131.311 156.027 133.787 153.707 135.126L103.25 164.258C100.929 165.597 98.0705 165.597 95.75 164.258L45.2933 135.126C42.9728 133.787 41.5433 131.311 41.5433 128.631V70.3688C41.5433 67.6893 42.9728 65.2134 45.2933 63.8736L95.75 34.7424C98.0705 33.4027 100.929 33.4027 103.25 34.7424Z" stroke="black"/>
<path id="hex-mid" d="M103.75 57.7424L134.721 75.6236C137.042 76.9634 138.471 79.4393 138.471 82.1188V117.881C138.471 120.561 137.042 123.037 134.721 124.376L103.75 142.258C101.429 143.597 98.5705 143.597 96.25 142.258L65.2789 124.376C62.9583 123.037 61.5289 120.561 61.5289 117.881V82.1188C61.5289 79.4393 62.9584 76.9634 65.2789 75.6236L96.25 57.7424C98.5705 56.4027 101.429 56.4027 103.75 57.7424Z" stroke="black"/>
<path id="hex-outer" d="M101.75 10.7424L171.692 51.1236C174.013 52.4634 175.442 54.9393 175.442 57.6188V138.381C175.442 141.061 174.013 143.537 171.692 144.876L101.75 185.258C99.4295 186.597 96.5705 186.597 94.25 185.258L24.3077 144.876C21.9872 143.537 20.5577 141.061 20.5577 138.381V57.6188C20.5577 54.9393 21.9872 52.4634 24.3077 51.1236L94.25 10.7424C96.5705 9.40267 99.4295 9.40267 101.75 10.7424Z" stroke="black"/>
</g>
</svg>
