<svg width="400" height="200" viewBox="0 0 400 200" fill="none" xmlns="http://www.w3.org/2000/svg">
<g id="loader-container">
<path id="right-arrow" d="M298 38L358.586 98.5858C359.367 99.3668 359.367 100.633 358.586 101.414L298 162" stroke="#46DDD3" stroke-width="10" stroke-linecap="round"/>
<path id="left-arrow" d="M101 162L40.4142 101.414C39.6332 100.633 39.6332 99.3668 40.4142 98.5858L101 38" stroke="#46DDD3" stroke-width="10" stroke-linecap="round"/>
<path id="rs.dev" d="M93.5 118V111.64H97.7V92.44H93.5V86.14H104.93L106.67 93.31C107.81 90.57 109.26 88.53 111.02 87.19C112.8 85.85 114.97 85.18 117.53 85.18C118.61 85.18 119.57 85.27 120.41 85.45C121.25 85.61 122.04 85.84 122.78 86.14L119.9 93.97C119.32 93.81 118.74 93.69 118.16 93.61C117.58 93.53 116.94 93.49 116.24 93.49C114.16 93.49 112.33 94.34 110.75 96.04C109.19 97.74 108 99.9 107.18 102.52V111.64H113.48V118H93.5ZM115.07 99.46V90.16L116.48 86.14H122.78L121.01 99.46H115.07ZM141.957 112.24C143.537 112.24 144.807 111.99 145.767 111.49C146.747 110.99 147.237 110.24 147.237 109.24C147.237 108.56 147.047 107.99 146.667 107.53C146.287 107.07 145.557 106.63 144.477 106.21C143.397 105.79 141.797 105.29 139.677 104.71C137.737 104.19 136.017 103.53 134.517 102.73C133.037 101.93 131.877 100.9 131.037 99.64C130.217 98.38 129.807 96.81 129.807 94.93C129.807 93.03 130.337 91.34 131.397 89.86C132.457 88.38 134.017 87.22 136.077 86.38C138.137 85.52 140.657 85.09 143.637 85.09C146.477 85.09 148.947 85.46 151.047 86.2C153.167 86.92 154.997 87.84 156.537 88.96L152.757 94.54C151.437 93.72 150.017 93.07 148.497 92.59C146.977 92.09 145.447 91.84 143.907 91.84C142.367 91.84 141.217 92.05 140.457 92.47C139.717 92.87 139.347 93.48 139.347 94.3C139.347 94.84 139.537 95.31 139.917 95.71C140.317 96.09 141.057 96.49 142.137 96.91C143.217 97.31 144.797 97.81 146.877 98.41C148.937 98.99 150.727 99.66 152.247 100.42C153.787 101.18 154.977 102.2 155.817 103.48C156.657 104.74 157.077 106.41 157.077 108.49C157.077 110.81 156.387 112.76 155.007 114.34C153.627 115.9 151.797 117.07 149.517 117.85C147.237 118.63 144.737 119.02 142.017 119.02C138.937 119.02 136.217 118.58 133.857 117.7C131.497 116.82 129.487 115.66 127.827 114.22L132.597 108.88C133.837 109.84 135.237 110.64 136.797 111.28C138.377 111.92 140.097 112.24 141.957 112.24ZM172.263 112.33C172.263 111.11 172.563 110 173.163 109C173.763 107.98 174.573 107.17 175.593 106.57C176.613 105.95 177.733 105.64 178.953 105.64C180.193 105.64 181.313 105.95 182.313 106.57C183.333 107.17 184.143 107.98 184.743 109C185.343 110 185.643 111.11 185.643 112.33C185.643 113.53 185.343 114.64 184.743 115.66C184.143 116.68 183.333 117.49 182.313 118.09C181.313 118.71 180.193 119.02 178.953 119.02C177.733 119.02 176.613 118.71 175.593 118.09C174.573 117.49 173.763 116.68 173.163 115.66C172.563 114.64 172.263 113.53 172.263 112.33ZM219.25 72.49L228.73 73.48V118H220.33L219.85 114.49C218.97 115.73 217.8 116.8 216.34 117.7C214.88 118.58 213.11 119.02 211.03 119.02C208.39 119.02 206.2 118.31 204.46 116.89C202.74 115.47 201.45 113.49 200.59 110.95C199.75 108.39 199.33 105.4 199.33 101.98C199.33 98.7 199.84 95.79 200.86 93.25C201.88 90.71 203.34 88.72 205.24 87.28C207.14 85.82 209.4 85.09 212.02 85.09C213.44 85.09 214.76 85.34 215.98 85.84C217.2 86.34 218.29 87.07 219.25 88.03V72.49ZM214.57 92.02C212.93 92.02 211.61 92.8 210.61 94.36C209.61 95.9 209.11 98.46 209.11 102.04C209.11 104.66 209.32 106.7 209.74 108.16C210.16 109.6 210.74 110.61 211.48 111.19C212.22 111.77 213.07 112.06 214.03 112.06C215.09 112.06 216.05 111.73 216.91 111.07C217.79 110.41 218.57 109.51 219.25 108.37V94.63C218.59 93.81 217.89 93.17 217.15 92.71C216.41 92.25 215.55 92.02 214.57 92.02ZM245.326 104.83C245.546 106.57 245.996 107.98 246.676 109.06C247.376 110.12 248.266 110.9 249.346 111.4C250.426 111.88 251.636 112.12 252.976 112.12C254.436 112.12 255.846 111.88 257.206 111.4C258.566 110.92 259.876 110.28 261.136 109.48L264.946 114.64C263.446 115.92 261.626 116.97 259.486 117.79C257.366 118.61 254.946 119.02 252.226 119.02C248.586 119.02 245.536 118.3 243.076 116.86C240.616 115.4 238.766 113.4 237.526 110.86C236.286 108.32 235.666 105.4 235.666 102.1C235.666 98.96 236.266 96.11 237.466 93.55C238.666 90.97 240.416 88.92 242.716 87.4C245.036 85.86 247.866 85.09 251.206 85.09C254.246 85.09 256.876 85.74 259.096 87.04C261.336 88.34 263.066 90.21 264.286 92.65C265.526 95.09 266.146 98.02 266.146 101.44C266.146 101.98 266.126 102.56 266.086 103.18C266.066 103.8 266.026 104.35 265.966 104.83H245.326ZM251.206 91.45C249.506 91.45 248.136 92.06 247.096 93.28C246.056 94.5 245.426 96.45 245.206 99.13H256.906C256.886 96.81 256.436 94.95 255.556 93.55C254.676 92.15 253.226 91.45 251.206 91.45ZM303.143 86.14L292.523 118H281.363L270.623 86.14H280.853L287.063 110.74L293.543 86.14H303.143Z" fill="#46DDD3"/>
</g>
</svg>
