<?xml version="1.0" encoding="UTF-8"?>
<svg xmlns="http://www.w3.org/2000/svg" xmlns:xlink="http://www.w3.org/1999/xlink" viewBox="0 0 30 30" width="30px" height="30px">
<g id="surface2757361">
<path style=" stroke:none;fill-rule:nonzero;fill:#46ddd3;fill-opacity:1;" d="M 20.882812 2.867188 L 19.117188 4.632812 L 21.980469 7.5 L 21.25 7.5 C 13.671875 7.5 7.5 13.671875 7.5 21.25 L 7.5 22.5 L 10 22.5 L 10 21.25 C 10 15.023438 15.023438 10 21.25 10 L 21.980469 10 L 19.117188 12.867188 L 20.882812 14.632812 L 26.765625 8.75 Z M 2.5 10 L 2.5 23.75 C 2.5 25.804688 4.195312 27.5 6.25 27.5 L 23.75 27.5 C 25.804688 27.5 27.5 25.804688 27.5 23.75 L 27.5 21.25 L 25 21.25 L 25 23.75 C 25 24.457031 24.457031 25 23.75 25 L 6.25 25 C 5.542969 25 5 24.457031 5 23.75 L 5 10 Z M 2.5 10 "/>
</g>
</svg>
